<svg width="100" height="42" viewBox="0 0 100 42" fill="none" xmlns="http://www.w3.org/2000/svg">
  <rect width="100" height="42" rx="4" fill="black"/>
  <path
    d="M73.7996 25.3534L70.3357 17.7849H67.4607L72.4091 27.997L72.32 28.3045C72.1961 28.7132 71.9345 29.0662 71.5798 29.3032C71.2252 29.5402 70.7995 29.6465 70.3753 29.6039C69.8788 29.5993 69.3917 29.4679 68.9601 29.222L68.4999 31.4093C69.164 31.6836 69.8747 31.8267 70.5931 31.8308C72.5724 31.8308 73.7699 31.1017 74.7596 28.9542L80 17.7849H77.2239L73.7996 25.3534Z"
    fill="white"/>
  <path
    d="M49.3187 14.1792H41.0153V28.0912H43.7369V22.9777H49.3187C52.3521 22.9777 54.3463 21.4452 54.3463 18.5785C54.3463 15.7118 52.3521 14.1792 49.3187 14.1792ZM49.1702 20.5425H43.727V16.5747H49.1702C50.7438 16.5747 51.6445 17.2939 51.6445 18.5586C51.6445 19.8234 50.7438 20.5425 49.1702 20.5425Z"
    fill="white"/>
  <path
    d="M65.7249 25.4527V21.2617C65.7249 18.7819 63.9484 17.4973 60.9002 17.4973C58.426 17.4973 56.2586 18.6529 55.6499 20.4285L57.8866 21.2221C58.2182 20.3343 59.3711 19.6796 60.8062 19.6796C62.5084 19.6796 63.226 20.3739 63.226 21.2221V21.4948L59.1782 21.9412C56.8475 22.1892 55.3134 23.2357 55.3134 25.1055C55.3134 27.1539 57.0701 28.2549 59.4008 28.2549C60.9031 28.3019 62.3661 27.7693 63.4882 26.767C63.894 27.759 64.3097 28.4236 67.0758 28.0714V25.9983C65.9674 26.2661 65.7249 25.9983 65.7249 25.4527ZM63.2507 24.1235C63.2507 25.4725 61.3654 26.1867 59.7868 26.1867C58.5843 26.1867 57.8619 25.7999 57.8619 25.0311C57.8619 24.2624 58.4557 23.9846 59.6037 23.8507L63.2606 23.4242L63.2507 24.1235Z"
    fill="white"/>
  <path
    d="M35.8678 24.8277C35.8871 24.8856 35.8871 24.9483 35.8678 25.0062C35.8566 25.064 35.8292 25.1174 35.7886 25.16L33.1709 27.9126C33.1132 27.9721 33.0442 28.0193 32.968 28.0515C32.8916 28.0851 32.809 28.102 32.7256 28.1011H20.31C20.2525 28.1016 20.196 28.0862 20.1467 28.0565C20.0974 28.0229 20.0581 27.9766 20.0329 27.9226C20.0154 27.8677 20.0154 27.8088 20.0329 27.7539C20.0431 27.6968 20.0688 27.6437 20.1071 27.6002L22.7298 24.8475C22.7874 24.7881 22.8564 24.7409 22.9326 24.7087C23.0089 24.6747 23.0917 24.6577 23.1751 24.6591H35.5709C35.6307 24.6579 35.6895 24.6752 35.7391 24.7087C35.7948 24.7317 35.8405 24.7739 35.8678 24.8277ZM33.1759 19.6002C33.1169 19.5423 33.0482 19.4953 32.973 19.4613C32.8958 19.4301 32.8137 19.4133 32.7305 19.4117H20.31C20.2518 19.4125 20.195 19.4297 20.146 19.4613C20.097 19.4928 20.0578 19.5375 20.0329 19.5902C20.0158 19.6451 20.0158 19.704 20.0329 19.7589C20.0412 19.8166 20.0671 19.8703 20.1071 19.9126L22.7298 22.6702C22.7887 22.7281 22.8574 22.7751 22.9326 22.8091C23.0096 22.8407 23.0919 22.8575 23.1751 22.8587H35.5709C35.6307 22.8598 35.6895 22.8425 35.7391 22.8091C35.7891 22.7799 35.8275 22.7344 35.848 22.6801C35.8734 22.6274 35.8818 22.568 35.872 22.5103C35.8623 22.4525 35.8349 22.3992 35.7936 22.3578L33.1759 19.6002ZM20.1467 17.5667C20.196 17.5964 20.2525 17.6118 20.31 17.6113H32.7305C32.8139 17.6122 32.8966 17.5953 32.973 17.5617C33.0492 17.5295 33.1182 17.4823 33.1759 17.4228L35.7936 14.6702C35.8341 14.6276 35.8616 14.5742 35.8728 14.5164C35.8899 14.4615 35.8899 14.4027 35.8728 14.3478C35.8523 14.2936 35.8139 14.2481 35.7639 14.2189C35.7142 14.1854 35.6555 14.1681 35.5956 14.1693H23.1553C23.0719 14.1679 22.9891 14.1849 22.9129 14.2189C22.8366 14.2511 22.7676 14.2983 22.71 14.3577L20.0923 17.1203C20.0507 17.1622 20.0231 17.2159 20.0131 17.274C19.9956 17.3289 19.9956 17.3878 20.0131 17.4427C20.0452 17.4957 20.0915 17.5386 20.1467 17.5667Z"
    fill="url(#paint0_linear_3_3049)"/>
  <defs>
    <linearGradient id="paint0_linear_3_3049" x1="21.3409" y1="28.4332" x2="34.0922" y2="13.7744"
      gradientUnits="userSpaceOnUse">
      <stop offset="0.08" stop-color="#9945FF"/>
      <stop offset="0.3" stop-color="#8752F3"/>
      <stop offset="0.5" stop-color="#5497D5"/>
      <stop offset="0.6" stop-color="#43B4CA"/>
      <stop offset="0.72" stop-color="#28E0B9"/>
      <stop offset="0.97" stop-color="#19FB9B"/>
    </linearGradient>
  </defs>
</svg>
